<?xml version="1.0" standalone="no"?>
<!DOCTYPE svg PUBLIC "-//W3C//DTD SVG 20010904//EN"
 "http://www.w3.org/TR/2001/REC-SVG-20010904/DTD/svg10.dtd">
<svg version="1.0" xmlns="http://www.w3.org/2000/svg"
 width="454.000000pt" height="454.000000pt" viewBox="0 0 454.000000 454.000000"
 preserveAspectRatio="xMidYMid meet">
<metadata>
Created by potrace 1.11, written by Peter Selinger 2001-2013
</metadata>
<g transform="translate(0.000000,454.000000) scale(0.100000,-0.100000)"
fill="#000000" stroke="none">
<path d="M2060 4441 c-8 -5 -46 -11 -85 -14 -38 -4 -104 -13 -145 -22 -41 -9
-86 -18 -100 -20 -37 -6 -145 -39 -225 -69 -38 -15 -74 -28 -80 -30 -11 -2
-76 -36 -133 -68 -20 -11 -59 -38 -85 -59 -26 -20 -51 -39 -55 -41 -4 -2 -39
-38 -79 -81 -95 -103 -186 -243 -222 -342 -6 -16 -16 -43 -22 -60 -15 -37 -15
-36 -33 -120 -24 -105 -30 -247 -16 -350 7 -49 14 -101 16 -115 7 -57 67 -236
103 -313 38 -78 80 -156 91 -167 3 -3 24 -28 48 -57 41 -50 43 -53 37 -104 -4
-29 -9 -57 -12 -62 -12 -19 -4 -205 11 -271 9 -38 30 -95 48 -128 17 -32 28
-61 25 -65 -9 -8 -361 166 -413 205 -29 21 -54 55 -87 118 -55 107 -101 158
-172 190 -69 32 -114 33 -153 5 -68 -48 -99 -119 -109 -251 l-5 -75 -69 -65
c-72 -68 -139 -168 -139 -207 0 -13 11 -41 25 -63 41 -66 138 -103 263 -102
40 1 77 4 82 7 5 3 42 8 82 10 62 4 81 1 123 -19 28 -13 165 -78 305 -144 140
-66 316 -150 391 -187 l137 -67 -2 -41 -1 -41 -220 -111 c-253 -128 -393 -185
-450 -185 -22 0 -73 7 -114 16 -63 13 -148 12 -191 -2 -3 0 -18 -4 -35 -8 -39
-10 -92 -79 -101 -133 -10 -62 20 -115 119 -212 94 -93 89 -80 102 -249 7 -99
80 -182 159 -182 79 0 173 86 269 246 27 44 58 87 70 94 12 8 139 76 282 152
l260 138 67 -68 c36 -37 91 -82 121 -100 175 -106 482 -144 782 -98 53 8 188
56 249 89 32 17 94 64 137 105 l77 73 264 -137 c145 -75 278 -150 295 -167 18
-17 51 -66 73 -109 45 -86 88 -133 167 -184 76 -49 119 -47 177 9 50 48 73
108 82 217 8 100 8 101 87 170 91 80 118 118 127 175 14 89 -64 160 -202 186
-58 11 -79 10 -152 -6 -54 -11 -99 -15 -123 -10 -21 4 -173 69 -338 146 l-300
138 -3 49 -3 48 62 29 c34 17 65 30 68 31 3 0 65 29 136 63 377 182 604 284
640 288 22 3 60 -1 85 -7 62 -17 189 -15 253 4 29 8 69 28 88 43 35 27 69 90
69 128 0 25 -72 122 -149 200 -56 58 -58 62 -64 125 -8 79 -36 188 -57 216 -8
12 -32 32 -52 46 -29 20 -46 24 -80 21 -84 -8 -184 -87 -235 -186 -27 -51 -29
-57 -32 -76 0 -5 -7 -16 -14 -23 -7 -7 -20 -24 -28 -38 -17 -26 -126 -90 -153
-90 -8 0 -16 -3 -18 -7 -5 -12 -247 -128 -253 -122 -3 3 8 30 24 60 27 50 48
110 59 169 9 55 3 229 -12 295 -15 69 -15 70 7 91 76 70 198 268 233 379 11
34 45 176 49 205 7 45 7 267 1 300 -3 14 -10 53 -16 88 -25 142 -100 318 -188
442 -61 86 -202 226 -277 275 -33 22 -61 43 -63 48 -2 4 -9 7 -15 7 -7 0 -25
7 -42 16 -52 27 -246 90 -365 119 -120 28 -129 30 -223 41 -32 4 -60 11 -63
15 -7 12 -434 11 -454 0z"/>
</g>
</svg>
